<mxfile host="app.diagrams.net" modified="2020-09-03T06:37:52.799Z" agent="5.0 (Windows NT 10.0; Win64; x64) AppleWebKit/537.36 (KHTML, like Gecko) Chrome/84.0.4147.135 Safari/537.36" etag="pXr32ivElpEI7Z_p0yoF" version="13.6.6" type="github" pages="6">
  <diagram id="_BJTnlV5F5JUWR95shi6" name="Login">
    <mxGraphModel dx="868" dy="433" grid="1" gridSize="10" guides="1" tooltips="1" connect="1" arrows="1" fold="1" page="1" pageScale="1" pageWidth="850" pageHeight="1100" math="0" shadow="0">
      <root>
        <mxCell id="VwB0dqucG6JxnKo6KZAs-0" />
        <mxCell id="VwB0dqucG6JxnKo6KZAs-1" parent="VwB0dqucG6JxnKo6KZAs-0" />
        <mxCell id="Qu4OrQJ69ZHAlaSqS7LJ-0" value="Login&lt;br&gt;" style="strokeWidth=1;shadow=0;dashed=0;align=center;html=1;shape=mxgraph.mockup.containers.window;align=left;verticalAlign=top;spacingLeft=8;strokeColor2=#008cff;strokeColor3=#c4c4c4;fontColor=#666666;mainText=;fontSize=17;labelBackgroundColor=none;" vertex="1" parent="VwB0dqucG6JxnKo6KZAs-1">
          <mxGeometry x="140" y="63" width="570" height="380" as="geometry" />
        </mxCell>
        <mxCell id="Qu4OrQJ69ZHAlaSqS7LJ-1" value="" style="rounded=1;whiteSpace=wrap;html=1;" vertex="1" parent="VwB0dqucG6JxnKo6KZAs-1">
          <mxGeometry x="380" y="210" width="150" height="20" as="geometry" />
        </mxCell>
        <mxCell id="Qu4OrQJ69ZHAlaSqS7LJ-2" value="Username" style="text;html=1;strokeColor=none;fillColor=none;align=center;verticalAlign=middle;whiteSpace=wrap;rounded=0;" vertex="1" parent="VwB0dqucG6JxnKo6KZAs-1">
          <mxGeometry x="300" y="210" width="40" height="20" as="geometry" />
        </mxCell>
        <mxCell id="Qu4OrQJ69ZHAlaSqS7LJ-3" value="Password&lt;br&gt;" style="text;html=1;strokeColor=none;fillColor=none;align=center;verticalAlign=middle;whiteSpace=wrap;rounded=0;" vertex="1" parent="VwB0dqucG6JxnKo6KZAs-1">
          <mxGeometry x="300" y="250" width="40" height="20" as="geometry" />
        </mxCell>
        <mxCell id="Qu4OrQJ69ZHAlaSqS7LJ-4" value="********" style="strokeWidth=1;shadow=0;dashed=0;align=center;html=1;shape=mxgraph.mockup.forms.pwField;strokeColor=#999999;mainText=;align=left;fontColor=#666666;fontSize=17;spacingLeft=3;" vertex="1" parent="VwB0dqucG6JxnKo6KZAs-1">
          <mxGeometry x="380" y="250" width="150" height="20" as="geometry" />
        </mxCell>
      </root>
    </mxGraphModel>
  </diagram>
  <diagram id="g7RgLKrgGWOLC0ozRzyg" name="Reset Password">
    <mxGraphModel dx="868" dy="433" grid="1" gridSize="10" guides="1" tooltips="1" connect="1" arrows="1" fold="1" page="1" pageScale="1" pageWidth="850" pageHeight="1100" math="0" shadow="0">
      <root>
        <mxCell id="RZ-KLe8mqHR4mUkx9Z4i-0" />
        <mxCell id="RZ-KLe8mqHR4mUkx9Z4i-1" parent="RZ-KLe8mqHR4mUkx9Z4i-0" />
        <mxCell id="deI8cIghdnwRe7VbDTJU-0" value="Login&lt;br&gt;" style="strokeWidth=1;shadow=0;dashed=0;align=center;html=1;shape=mxgraph.mockup.containers.window;align=left;verticalAlign=top;spacingLeft=8;strokeColor2=#008cff;strokeColor3=#c4c4c4;fontColor=#666666;mainText=;fontSize=17;labelBackgroundColor=none;" vertex="1" parent="RZ-KLe8mqHR4mUkx9Z4i-1">
          <mxGeometry x="140" y="63" width="570" height="380" as="geometry" />
        </mxCell>
        <mxCell id="deI8cIghdnwRe7VbDTJU-2" value="New Password" style="text;html=1;strokeColor=none;fillColor=none;align=center;verticalAlign=middle;whiteSpace=wrap;rounded=0;" vertex="1" parent="RZ-KLe8mqHR4mUkx9Z4i-1">
          <mxGeometry x="300" y="210" width="40" height="20" as="geometry" />
        </mxCell>
        <mxCell id="deI8cIghdnwRe7VbDTJU-3" value="Confirm &lt;br&gt;Password" style="text;html=1;strokeColor=none;fillColor=none;align=center;verticalAlign=middle;whiteSpace=wrap;rounded=0;" vertex="1" parent="RZ-KLe8mqHR4mUkx9Z4i-1">
          <mxGeometry x="300" y="250" width="40" height="20" as="geometry" />
        </mxCell>
        <mxCell id="deI8cIghdnwRe7VbDTJU-4" value="********" style="strokeWidth=1;shadow=0;dashed=0;align=center;html=1;shape=mxgraph.mockup.forms.pwField;strokeColor=#999999;mainText=;align=left;fontColor=#666666;fontSize=17;spacingLeft=3;" vertex="1" parent="RZ-KLe8mqHR4mUkx9Z4i-1">
          <mxGeometry x="380" y="250" width="150" height="20" as="geometry" />
        </mxCell>
        <mxCell id="deI8cIghdnwRe7VbDTJU-5" value="********" style="strokeWidth=1;shadow=0;dashed=0;align=center;html=1;shape=mxgraph.mockup.forms.pwField;strokeColor=#999999;mainText=;align=left;fontColor=#666666;fontSize=17;spacingLeft=3;" vertex="1" parent="RZ-KLe8mqHR4mUkx9Z4i-1">
          <mxGeometry x="380" y="210" width="150" height="20" as="geometry" />
        </mxCell>
        <mxCell id="deI8cIghdnwRe7VbDTJU-6" value="Current Password" style="text;html=1;strokeColor=none;fillColor=none;align=center;verticalAlign=middle;whiteSpace=wrap;rounded=0;" vertex="1" parent="RZ-KLe8mqHR4mUkx9Z4i-1">
          <mxGeometry x="300" y="168" width="40" height="20" as="geometry" />
        </mxCell>
        <mxCell id="deI8cIghdnwRe7VbDTJU-7" value="********" style="strokeWidth=1;shadow=0;dashed=0;align=center;html=1;shape=mxgraph.mockup.forms.pwField;strokeColor=#999999;mainText=;align=left;fontColor=#666666;fontSize=17;spacingLeft=3;" vertex="1" parent="RZ-KLe8mqHR4mUkx9Z4i-1">
          <mxGeometry x="380" y="170" width="150" height="20" as="geometry" />
        </mxCell>
        <mxCell id="d_yLbRDP9r5GSdHLKMfU-0" value="" style="verticalLabelPosition=bottom;shadow=0;dashed=0;align=center;html=1;verticalAlign=top;strokeWidth=1;shape=mxgraph.mockup.containers.userMale;strokeColor=#666666;strokeColor2=#008cff;" vertex="1" parent="RZ-KLe8mqHR4mUkx9Z4i-1">
          <mxGeometry x="630" y="100" width="30" height="30" as="geometry" />
        </mxCell>
        <mxCell id="d_yLbRDP9r5GSdHLKMfU-1" value="" style="shape=image;html=1;verticalAlign=top;verticalLabelPosition=bottom;labelBackgroundColor=#ffffff;imageAspect=0;aspect=fixed;image=https://cdn4.iconfinder.com/data/icons/cologne/32x32/logout.png;fontSize=12;" vertex="1" parent="RZ-KLe8mqHR4mUkx9Z4i-1">
          <mxGeometry x="670" y="98" width="32" height="32" as="geometry" />
        </mxCell>
      </root>
    </mxGraphModel>
  </diagram>
  <diagram id="9kghP2EEZvONq2nVlBwT" name="Certified User - Landing">
    <mxGraphModel dx="868" dy="433" grid="1" gridSize="10" guides="1" tooltips="1" connect="1" arrows="1" fold="1" page="1" pageScale="1" pageWidth="850" pageHeight="1100" math="0" shadow="0">
      <root>
        <mxCell id="w7-TPkoKa8AdrtMxsmAd-0" />
        <mxCell id="w7-TPkoKa8AdrtMxsmAd-1" parent="w7-TPkoKa8AdrtMxsmAd-0" />
        <mxCell id="w7-TPkoKa8AdrtMxsmAd-2" value="Capture Video" style="strokeWidth=1;shadow=0;dashed=0;align=center;html=1;shape=mxgraph.mockup.containers.window;align=left;verticalAlign=top;spacingLeft=8;strokeColor2=#008cff;strokeColor3=#c4c4c4;fontColor=#666666;mainText=;fontSize=17;labelBackgroundColor=none;" vertex="1" parent="w7-TPkoKa8AdrtMxsmAd-1">
          <mxGeometry x="160" y="60" width="550" height="380" as="geometry" />
        </mxCell>
        <mxCell id="w7-TPkoKa8AdrtMxsmAd-3" value="" style="verticalLabelPosition=bottom;shadow=0;dashed=0;align=center;html=1;verticalAlign=top;strokeWidth=1;shape=mxgraph.mockup.containers.userMale;strokeColor=#666666;strokeColor2=#008cff;" vertex="1" parent="w7-TPkoKa8AdrtMxsmAd-1">
          <mxGeometry x="630" y="100" width="30" height="30" as="geometry" />
        </mxCell>
        <mxCell id="2STJ5uMNOq-adZ0BhVBa-0" value="" style="shape=image;html=1;verticalAlign=top;verticalLabelPosition=bottom;labelBackgroundColor=#ffffff;imageAspect=0;aspect=fixed;image=https://cdn3.iconfinder.com/data/icons/tango-icon-library/48/media-record-128.png;fontSize=12;" vertex="1" parent="w7-TPkoKa8AdrtMxsmAd-1">
          <mxGeometry x="240" y="390" width="24" height="24" as="geometry" />
        </mxCell>
        <mxCell id="2STJ5uMNOq-adZ0BhVBa-1" value="" style="html=1;verticalLabelPosition=bottom;align=center;labelBackgroundColor=#ffffff;verticalAlign=top;strokeWidth=2;strokeColor=#0080F0;shadow=0;dashed=0;shape=mxgraph.ios7.icons.play;fontSize=12;" vertex="1" parent="w7-TPkoKa8AdrtMxsmAd-1">
          <mxGeometry x="284" y="394" width="16" height="16" as="geometry" />
        </mxCell>
        <mxCell id="2STJ5uMNOq-adZ0BhVBa-3" value="" style="html=1;verticalLabelPosition=bottom;align=center;labelBackgroundColor=#ffffff;verticalAlign=top;strokeWidth=2;strokeColor=#0080F0;shadow=0;dashed=0;shape=mxgraph.ios7.icons.backward;fontSize=12;" vertex="1" parent="w7-TPkoKa8AdrtMxsmAd-1">
          <mxGeometry x="590" y="394" width="30" height="16.8" as="geometry" />
        </mxCell>
        <mxCell id="F2f1IWXwHl6dJMEsT3s0-0" value="" style="shape=image;html=1;verticalAlign=top;verticalLabelPosition=bottom;labelBackgroundColor=#ffffff;imageAspect=0;aspect=fixed;image=https://cdn4.iconfinder.com/data/icons/cologne/32x32/logout.png;fontSize=12;" vertex="1" parent="w7-TPkoKa8AdrtMxsmAd-1">
          <mxGeometry x="670" y="98" width="32" height="32" as="geometry" />
        </mxCell>
        <mxCell id="L5G0A26DJi-BWIg2enye-0" value="" style="verticalLabelPosition=bottom;shadow=0;dashed=0;align=center;html=1;verticalAlign=top;strokeWidth=1;shape=mxgraph.mockup.containers.videoPlayer;strokeColor=#666666;strokeColor2=#008cff;strokeColor3=#c4c4c4;textColor=#666666;fillColor2=#008cff;barHeight=30;barPos=20;fontSize=12;" vertex="1" parent="w7-TPkoKa8AdrtMxsmAd-1">
          <mxGeometry x="240" y="170" width="390" height="200" as="geometry" />
        </mxCell>
      </root>
    </mxGraphModel>
  </diagram>
  <diagram id="U7QO5OhWm9dQC_eqGEMN" name="Admin/Reviewer - Users">
    <mxGraphModel dx="868" dy="433" grid="1" gridSize="10" guides="1" tooltips="1" connect="1" arrows="1" fold="1" page="1" pageScale="1" pageWidth="850" pageHeight="1100" math="0" shadow="0">
      <root>
        <mxCell id="Jqtlgtn_Sr9Ml965YSNC-0" />
        <mxCell id="Jqtlgtn_Sr9Ml965YSNC-1" parent="Jqtlgtn_Sr9Ml965YSNC-0" />
        <mxCell id="rDCqnf7OUyIxYzvHR-U5-0" value="Window Title" style="strokeWidth=1;shadow=0;dashed=0;align=center;html=1;shape=mxgraph.mockup.containers.window;align=left;verticalAlign=top;spacingLeft=8;strokeColor2=#008cff;strokeColor3=#c4c4c4;fontColor=#666666;mainText=;fontSize=17;labelBackgroundColor=none;" vertex="1" parent="Jqtlgtn_Sr9Ml965YSNC-1">
          <mxGeometry x="120" y="40" width="640" height="420" as="geometry" />
        </mxCell>
        <mxCell id="rDCqnf7OUyIxYzvHR-U5-1" value="" style="strokeWidth=1;shadow=0;dashed=0;align=center;html=1;shape=mxgraph.mockup.containers.rrect;rSize=0;strokeColor=#666666;" vertex="1" parent="Jqtlgtn_Sr9Ml965YSNC-1">
          <mxGeometry x="120" y="70" width="100" height="390" as="geometry" />
        </mxCell>
        <mxCell id="rDCqnf7OUyIxYzvHR-U5-2" value="Users" style="strokeColor=#6c8ebf;fillColor=#dae8fc;strokeWidth=1;shadow=0;dashed=0;align=center;html=1;shape=mxgraph.mockup.containers.rrect;rSize=0;fontSize=12;fontStyle=1;resizeWidth=1;" vertex="1" parent="rDCqnf7OUyIxYzvHR-U5-1">
          <mxGeometry width="100" height="26" relative="1" as="geometry">
            <mxPoint y="70" as="offset" />
          </mxGeometry>
        </mxCell>
        <mxCell id="rDCqnf7OUyIxYzvHR-U5-3" value="Videos" style="strokeColor=inherit;fillColor=inherit;gradientColor=inherit;strokeWidth=1;shadow=0;dashed=0;align=center;html=1;shape=mxgraph.mockup.containers.rrect;rSize=0;fontSize=12;fontColor=#666666;fontStyle=1;resizeWidth=1;" vertex="1" parent="rDCqnf7OUyIxYzvHR-U5-1">
          <mxGeometry width="100" height="26" relative="1" as="geometry">
            <mxPoint y="96" as="offset" />
          </mxGeometry>
        </mxCell>
        <mxCell id="rDCqnf7OUyIxYzvHR-U5-19" value="&lt;table border=&quot;1&quot; width=&quot;100%&quot; cellpadding=&quot;4&quot; style=&quot;width: 100% ; height: 100% ; border-collapse: collapse&quot;&gt;&lt;tbody&gt;&lt;tr style=&quot;background-color: #a7c942 ; color: #ffffff ; border: 1px solid #98bf21&quot;&gt;&lt;th align=&quot;left&quot;&gt;Username&lt;/th&gt;&lt;th align=&quot;left&quot;&gt;Full Name&lt;/th&gt;&lt;th align=&quot;left&quot;&gt;Email&lt;/th&gt;&lt;td&gt;Actions&lt;/td&gt;&lt;/tr&gt;&lt;tr style=&quot;border: 1px solid #98bf21&quot;&gt;&lt;td&gt;bob&lt;/td&gt;&lt;td&gt;Value 2&lt;/td&gt;&lt;td&gt;bob@test.com&lt;/td&gt;&lt;td&gt;&lt;br&gt;&lt;/td&gt;&lt;/tr&gt;&lt;tr style=&quot;background-color: #eaf2d3 ; border: 1px solid #98bf21&quot;&gt;&lt;td&gt;lily&lt;/td&gt;&lt;td&gt;Value 5&lt;/td&gt;&lt;td&gt;lily@test.com&lt;/td&gt;&lt;td&gt;&lt;br&gt;&lt;/td&gt;&lt;/tr&gt;&lt;tr style=&quot;border: 1px solid #98bf21&quot;&gt;&lt;td&gt;brendan&lt;/td&gt;&lt;td&gt;Value 8&lt;/td&gt;&lt;td&gt;brendan@test.com&lt;/td&gt;&lt;td&gt;&lt;br&gt;&lt;/td&gt;&lt;/tr&gt;&lt;/tbody&gt;&lt;/table&gt;" style="text;html=1;strokeColor=#c0c0c0;fillColor=#ffffff;overflow=fill;rounded=0;fontSize=12;" vertex="1" parent="Jqtlgtn_Sr9Ml965YSNC-1">
          <mxGeometry x="250" y="140" width="490" height="170" as="geometry" />
        </mxCell>
        <mxCell id="rDCqnf7OUyIxYzvHR-U5-20" value="" style="shape=image;html=1;verticalAlign=top;verticalLabelPosition=bottom;labelBackgroundColor=#ffffff;imageAspect=0;aspect=fixed;image=https://cdn1.iconfinder.com/data/icons/airline-flight-booking-mobile-app/15/detail-information-menu-data-128.png;fontSize=12;" vertex="1" parent="Jqtlgtn_Sr9Ml965YSNC-1">
          <mxGeometry x="670" y="190" width="16" height="16" as="geometry" />
        </mxCell>
        <mxCell id="rDCqnf7OUyIxYzvHR-U5-21" value="" style="shape=image;html=1;verticalAlign=top;verticalLabelPosition=bottom;labelBackgroundColor=#ffffff;imageAspect=0;aspect=fixed;image=https://cdn1.iconfinder.com/data/icons/airline-flight-booking-mobile-app/15/detail-information-menu-data-128.png;fontSize=12;" vertex="1" parent="Jqtlgtn_Sr9Ml965YSNC-1">
          <mxGeometry x="670" y="232" width="16" height="16" as="geometry" />
        </mxCell>
        <mxCell id="rDCqnf7OUyIxYzvHR-U5-22" value="" style="shape=image;html=1;verticalAlign=top;verticalLabelPosition=bottom;labelBackgroundColor=#ffffff;imageAspect=0;aspect=fixed;image=https://cdn1.iconfinder.com/data/icons/airline-flight-booking-mobile-app/15/detail-information-menu-data-128.png;fontSize=12;" vertex="1" parent="Jqtlgtn_Sr9Ml965YSNC-1">
          <mxGeometry x="670" y="277" width="16" height="16" as="geometry" />
        </mxCell>
        <mxCell id="rDCqnf7OUyIxYzvHR-U5-23" value="" style="shape=image;html=1;verticalAlign=top;verticalLabelPosition=bottom;labelBackgroundColor=#ffffff;imageAspect=0;aspect=fixed;image=https://cdn3.iconfinder.com/data/icons/google-material-design-icons/48/ic_delete_48px-128.png;fontSize=12;" vertex="1" parent="Jqtlgtn_Sr9Ml965YSNC-1">
          <mxGeometry x="700" y="190" width="20" height="20" as="geometry" />
        </mxCell>
        <mxCell id="rDCqnf7OUyIxYzvHR-U5-24" value="" style="shape=image;html=1;verticalAlign=top;verticalLabelPosition=bottom;labelBackgroundColor=#ffffff;imageAspect=0;aspect=fixed;image=https://cdn3.iconfinder.com/data/icons/google-material-design-icons/48/ic_delete_48px-128.png;fontSize=12;" vertex="1" parent="Jqtlgtn_Sr9Ml965YSNC-1">
          <mxGeometry x="700" y="230" width="20" height="20" as="geometry" />
        </mxCell>
        <mxCell id="rDCqnf7OUyIxYzvHR-U5-25" value="" style="shape=image;html=1;verticalAlign=top;verticalLabelPosition=bottom;labelBackgroundColor=#ffffff;imageAspect=0;aspect=fixed;image=https://cdn3.iconfinder.com/data/icons/google-material-design-icons/48/ic_delete_48px-128.png;fontSize=12;" vertex="1" parent="Jqtlgtn_Sr9Ml965YSNC-1">
          <mxGeometry x="700" y="275" width="20" height="20" as="geometry" />
        </mxCell>
        <mxCell id="iRTXrnIzyo8DyJ3poKf7-0" value="" style="verticalLabelPosition=bottom;shadow=0;dashed=0;align=center;html=1;verticalAlign=top;strokeWidth=1;shape=mxgraph.mockup.containers.userMale;strokeColor=#666666;strokeColor2=#008cff;" vertex="1" parent="Jqtlgtn_Sr9Ml965YSNC-1">
          <mxGeometry x="680" y="78" width="30" height="30" as="geometry" />
        </mxCell>
        <mxCell id="iRTXrnIzyo8DyJ3poKf7-1" value="" style="shape=image;html=1;verticalAlign=top;verticalLabelPosition=bottom;labelBackgroundColor=#ffffff;imageAspect=0;aspect=fixed;image=https://cdn4.iconfinder.com/data/icons/cologne/32x32/logout.png;fontSize=12;" vertex="1" parent="Jqtlgtn_Sr9Ml965YSNC-1">
          <mxGeometry x="720" y="78" width="32" height="32" as="geometry" />
        </mxCell>
        <mxCell id="o_Z9Et9qPsfZr61b8SbS-0" value="" style="html=1;shadow=0;dashed=0;shape=mxgraph.bootstrap.rrect;rSize=5;strokeColor=#DEE2E6;html=1;whiteSpace=wrap;fillColor=#ffffff;fontColor=#0085FC;fontSize=14;align=right;" vertex="1" parent="Jqtlgtn_Sr9Ml965YSNC-1">
          <mxGeometry x="250" y="310" width="220" height="30" as="geometry" />
        </mxCell>
        <mxCell id="o_Z9Et9qPsfZr61b8SbS-1" value="Previous" style="strokeColor=inherit;fillColor=inherit;gradientColor=inherit;fontColor=inherit;html=1;shadow=0;dashed=0;shape=mxgraph.bootstrap.leftButton;rSize=5;perimeter=none;whiteSpace=wrap;resizeHeight=1;fontSize=14;" vertex="1" parent="o_Z9Et9qPsfZr61b8SbS-0">
          <mxGeometry width="70" height="30" relative="1" as="geometry" />
        </mxCell>
        <mxCell id="o_Z9Et9qPsfZr61b8SbS-2" value="1" style="strokeColor=inherit;fillColor=inherit;gradientColor=inherit;fontColor=inherit;html=1;shadow=0;dashed=0;perimeter=none;whiteSpace=wrap;resizeHeight=1;fontSize=14;" vertex="1" parent="o_Z9Et9qPsfZr61b8SbS-0">
          <mxGeometry width="30" height="30" relative="1" as="geometry">
            <mxPoint x="70" as="offset" />
          </mxGeometry>
        </mxCell>
        <mxCell id="o_Z9Et9qPsfZr61b8SbS-3" value="2" style="strokeColor=inherit;fillColor=inherit;gradientColor=inherit;fontColor=inherit;html=1;shadow=0;dashed=0;perimeter=none;whiteSpace=wrap;resizeHeight=1;fontSize=14;" vertex="1" parent="o_Z9Et9qPsfZr61b8SbS-0">
          <mxGeometry width="30" height="30" relative="1" as="geometry">
            <mxPoint x="100" as="offset" />
          </mxGeometry>
        </mxCell>
        <mxCell id="o_Z9Et9qPsfZr61b8SbS-4" value="3" style="strokeColor=inherit;fillColor=inherit;gradientColor=inherit;fontColor=inherit;html=1;shadow=0;dashed=0;perimeter=none;whiteSpace=wrap;resizeHeight=1;fontSize=14;" vertex="1" parent="o_Z9Et9qPsfZr61b8SbS-0">
          <mxGeometry width="30" height="30" relative="1" as="geometry">
            <mxPoint x="130" as="offset" />
          </mxGeometry>
        </mxCell>
        <mxCell id="o_Z9Et9qPsfZr61b8SbS-5" value="Next" style="strokeColor=inherit;fillColor=inherit;gradientColor=inherit;fontColor=inherit;html=1;shadow=0;dashed=0;shape=mxgraph.bootstrap.rightButton;rSize=5;perimeter=none;whiteSpace=wrap;resizeHeight=1;fontSize=14;" vertex="1" parent="o_Z9Et9qPsfZr61b8SbS-0">
          <mxGeometry x="1" width="60" height="30" relative="1" as="geometry">
            <mxPoint x="-60" as="offset" />
          </mxGeometry>
        </mxCell>
      </root>
    </mxGraphModel>
  </diagram>
  <diagram id="6MQDrAysPCrJ3uBCHTeF" name="Admin/Reviewer - User Details">
    <mxGraphModel dx="868" dy="433" grid="1" gridSize="10" guides="1" tooltips="1" connect="1" arrows="1" fold="1" page="1" pageScale="1" pageWidth="850" pageHeight="1100" math="0" shadow="0">
      <root>
        <mxCell id="uZPL7Y9QSaVusWNW0IE--0" />
        <mxCell id="uZPL7Y9QSaVusWNW0IE--1" parent="uZPL7Y9QSaVusWNW0IE--0" />
        <mxCell id="uZPL7Y9QSaVusWNW0IE--2" value="User Details&lt;br&gt;" style="strokeWidth=1;shadow=0;dashed=0;align=center;html=1;shape=mxgraph.mockup.containers.window;align=left;verticalAlign=top;spacingLeft=8;strokeColor2=#008cff;strokeColor3=#c4c4c4;fontColor=#666666;mainText=;fontSize=17;labelBackgroundColor=none;" vertex="1" parent="uZPL7Y9QSaVusWNW0IE--1">
          <mxGeometry x="90" y="30" width="690" height="450" as="geometry" />
        </mxCell>
        <mxCell id="86SIk0dFBRPMYtZdk94E-0" value="" style="verticalLabelPosition=bottom;shadow=0;dashed=0;align=center;html=1;verticalAlign=top;strokeWidth=1;shape=mxgraph.mockup.containers.userMale;strokeColor=#666666;strokeColor2=#008cff;" vertex="1" parent="uZPL7Y9QSaVusWNW0IE--1">
          <mxGeometry x="700" y="78" width="30" height="30" as="geometry" />
        </mxCell>
        <mxCell id="86SIk0dFBRPMYtZdk94E-1" value="" style="shape=image;html=1;verticalAlign=top;verticalLabelPosition=bottom;labelBackgroundColor=#ffffff;imageAspect=0;aspect=fixed;image=https://cdn4.iconfinder.com/data/icons/cologne/32x32/logout.png;fontSize=12;" vertex="1" parent="uZPL7Y9QSaVusWNW0IE--1">
          <mxGeometry x="740" y="78" width="32" height="32" as="geometry" />
        </mxCell>
        <mxCell id="-1zvLQWWkreNCrkTlG6x-0" value="" style="strokeWidth=1;shadow=0;dashed=0;align=center;html=1;shape=mxgraph.mockup.containers.rrect;rSize=0;strokeColor=#666666;" vertex="1" parent="uZPL7Y9QSaVusWNW0IE--1">
          <mxGeometry x="90" y="60" width="100" height="420" as="geometry" />
        </mxCell>
        <mxCell id="-1zvLQWWkreNCrkTlG6x-1" value="Users" style="strokeColor=#6c8ebf;fillColor=#dae8fc;strokeWidth=1;shadow=0;dashed=0;align=center;html=1;shape=mxgraph.mockup.containers.rrect;rSize=0;fontSize=12;fontStyle=1;resizeWidth=1;" vertex="1" parent="-1zvLQWWkreNCrkTlG6x-0">
          <mxGeometry width="100" height="26" relative="1" as="geometry">
            <mxPoint y="61" as="offset" />
          </mxGeometry>
        </mxCell>
        <mxCell id="-1zvLQWWkreNCrkTlG6x-2" value="Videos" style="strokeColor=inherit;fillColor=inherit;gradientColor=inherit;strokeWidth=1;shadow=0;dashed=0;align=center;html=1;shape=mxgraph.mockup.containers.rrect;rSize=0;fontSize=12;fontColor=#666666;fontStyle=1;resizeWidth=1;" vertex="1" parent="-1zvLQWWkreNCrkTlG6x-0">
          <mxGeometry width="100" height="26" relative="1" as="geometry">
            <mxPoint y="93" as="offset" />
          </mxGeometry>
        </mxCell>
        <mxCell id="tYEDQw4N72EArSJBWLbQ-0" value="User Details" style="swimlane;fontSize=12;align=center;" vertex="1" parent="uZPL7Y9QSaVusWNW0IE--1">
          <mxGeometry x="200" y="120" width="570" height="130" as="geometry" />
        </mxCell>
        <mxCell id="tYEDQw4N72EArSJBWLbQ-23" value="" style="strokeWidth=1;shadow=0;dashed=0;align=center;html=1;shape=mxgraph.mockup.text.textBox;fontColor=#666666;align=left;fontSize=12;spacingLeft=4;spacingTop=-3;strokeColor=#666666;mainText=" vertex="1" parent="tYEDQw4N72EArSJBWLbQ-0">
          <mxGeometry x="170" y="40" width="150" height="20" as="geometry" />
        </mxCell>
        <mxCell id="tYEDQw4N72EArSJBWLbQ-2" value="Tags" style="swimlane;fontSize=12;align=center;" vertex="1" parent="uZPL7Y9QSaVusWNW0IE--1">
          <mxGeometry x="200" y="260" width="570" height="170" as="geometry" />
        </mxCell>
        <mxCell id="tYEDQw4N72EArSJBWLbQ-3" value="Tag 1" style="strokeWidth=1;shadow=0;dashed=0;align=center;html=1;shape=mxgraph.mockup.forms.rrect;rSize=0;fillColor=#eeeeee;strokeColor=#999999;gradientColor=#cccccc;align=left;spacingLeft=4;fontSize=12;fontColor=#666666;labelPosition=right;aspect=fixed;" vertex="1" parent="tYEDQw4N72EArSJBWLbQ-2">
          <mxGeometry x="20" y="45" width="15" height="15" as="geometry" />
        </mxCell>
        <mxCell id="tYEDQw4N72EArSJBWLbQ-4" value="Tag 2" style="strokeWidth=1;shadow=0;dashed=0;align=center;html=1;shape=mxgraph.mockup.forms.rrect;rSize=0;fillColor=#eeeeee;strokeColor=#999999;gradientColor=#cccccc;align=left;spacingLeft=4;fontSize=12;fontColor=#666666;labelPosition=right;" vertex="1" parent="uZPL7Y9QSaVusWNW0IE--1">
          <mxGeometry x="300" y="305" width="15" height="15" as="geometry" />
        </mxCell>
        <mxCell id="tYEDQw4N72EArSJBWLbQ-5" value="Tag 3" style="strokeWidth=1;shadow=0;dashed=0;align=center;html=1;shape=mxgraph.mockup.forms.rrect;rSize=0;fillColor=#eeeeee;strokeColor=#999999;gradientColor=#cccccc;align=left;spacingLeft=4;fontSize=12;fontColor=#666666;labelPosition=right;" vertex="1" parent="uZPL7Y9QSaVusWNW0IE--1">
          <mxGeometry x="380" y="305" width="15" height="15" as="geometry" />
        </mxCell>
        <mxCell id="tYEDQw4N72EArSJBWLbQ-6" value="Tag 4" style="strokeWidth=1;shadow=0;dashed=0;align=center;html=1;shape=mxgraph.mockup.forms.rrect;rSize=0;fillColor=#eeeeee;strokeColor=#999999;gradientColor=#cccccc;align=left;spacingLeft=4;fontSize=12;fontColor=#666666;labelPosition=right;" vertex="1" parent="uZPL7Y9QSaVusWNW0IE--1">
          <mxGeometry x="460" y="305" width="15" height="15" as="geometry" />
        </mxCell>
        <mxCell id="tYEDQw4N72EArSJBWLbQ-7" value="Tag 5" style="strokeWidth=1;shadow=0;dashed=0;align=center;html=1;shape=mxgraph.mockup.forms.rrect;rSize=0;fillColor=#eeeeee;strokeColor=#999999;gradientColor=#cccccc;align=left;spacingLeft=4;fontSize=12;fontColor=#666666;labelPosition=right;" vertex="1" parent="uZPL7Y9QSaVusWNW0IE--1">
          <mxGeometry x="540" y="305" width="15" height="15" as="geometry" />
        </mxCell>
        <mxCell id="tYEDQw4N72EArSJBWLbQ-8" value="Tag 6" style="strokeWidth=1;shadow=0;dashed=0;align=center;html=1;shape=mxgraph.mockup.forms.rrect;rSize=0;fillColor=#eeeeee;strokeColor=#999999;gradientColor=#cccccc;align=left;spacingLeft=4;fontSize=12;fontColor=#666666;labelPosition=right;" vertex="1" parent="uZPL7Y9QSaVusWNW0IE--1">
          <mxGeometry x="620" y="305" width="15" height="15" as="geometry" />
        </mxCell>
        <mxCell id="tYEDQw4N72EArSJBWLbQ-19" value="Email" style="text;html=1;strokeColor=none;fillColor=none;align=right;verticalAlign=middle;whiteSpace=wrap;rounded=0;fontSize=12;" vertex="1" parent="uZPL7Y9QSaVusWNW0IE--1">
          <mxGeometry x="230" y="160" width="110" height="20" as="geometry" />
        </mxCell>
        <mxCell id="tYEDQw4N72EArSJBWLbQ-22" value="Full Name" style="text;html=1;strokeColor=none;fillColor=none;align=right;verticalAlign=middle;whiteSpace=wrap;rounded=0;fontSize=12;" vertex="1" parent="uZPL7Y9QSaVusWNW0IE--1">
          <mxGeometry x="210" y="189" width="130" height="20" as="geometry" />
        </mxCell>
        <mxCell id="tYEDQw4N72EArSJBWLbQ-24" value="" style="strokeWidth=1;shadow=0;dashed=0;align=center;html=1;shape=mxgraph.mockup.text.textBox;fontColor=#666666;align=left;fontSize=12;spacingLeft=4;spacingTop=-3;strokeColor=#666666;mainText=" vertex="1" parent="uZPL7Y9QSaVusWNW0IE--1">
          <mxGeometry x="370" y="190" width="150" height="20" as="geometry" />
        </mxCell>
        <mxCell id="4T_y5UK03RiKY_cuNbN9-0" value="" style="shape=image;html=1;verticalAlign=top;verticalLabelPosition=bottom;labelBackgroundColor=#ffffff;imageAspect=0;aspect=fixed;image=https://cdn4.iconfinder.com/data/icons/feather/24/save-128.png;fontSize=12;align=right;" vertex="1" parent="uZPL7Y9QSaVusWNW0IE--1">
          <mxGeometry x="710" y="440" width="30" height="30" as="geometry" />
        </mxCell>
        <mxCell id="4T_y5UK03RiKY_cuNbN9-1" value="" style="shape=image;html=1;verticalAlign=top;verticalLabelPosition=bottom;labelBackgroundColor=#ffffff;imageAspect=0;aspect=fixed;image=https://cdn2.iconfinder.com/data/icons/picol-vector/32/cancel-128.png;fontSize=12;align=right;" vertex="1" parent="uZPL7Y9QSaVusWNW0IE--1">
          <mxGeometry x="748" y="440" width="24" height="24" as="geometry" />
        </mxCell>
      </root>
    </mxGraphModel>
  </diagram>
  <diagram id="UOzsCkxYos2XYgKIGh3F" name="Admin/Reviewer - Videos">
    <mxGraphModel dx="868" dy="433" grid="1" gridSize="10" guides="1" tooltips="1" connect="1" arrows="1" fold="1" page="1" pageScale="1" pageWidth="850" pageHeight="1100" math="0" shadow="0">
      <root>
        <mxCell id="_b6Y4dmBiOVU1eUExEwR-0" />
        <mxCell id="_b6Y4dmBiOVU1eUExEwR-1" parent="_b6Y4dmBiOVU1eUExEwR-0" />
        <mxCell id="rLCCT3DVY9T7elci9s30-0" value="User Details&lt;br&gt;" style="strokeWidth=1;shadow=0;dashed=0;align=center;html=1;shape=mxgraph.mockup.containers.window;align=left;verticalAlign=top;spacingLeft=8;strokeColor2=#008cff;strokeColor3=#c4c4c4;fontColor=#666666;mainText=;fontSize=17;labelBackgroundColor=none;" vertex="1" parent="_b6Y4dmBiOVU1eUExEwR-1">
          <mxGeometry x="90" y="30" width="690" height="450" as="geometry" />
        </mxCell>
        <mxCell id="rLCCT3DVY9T7elci9s30-1" value="" style="verticalLabelPosition=bottom;shadow=0;dashed=0;align=center;html=1;verticalAlign=top;strokeWidth=1;shape=mxgraph.mockup.containers.userMale;strokeColor=#666666;strokeColor2=#008cff;" vertex="1" parent="_b6Y4dmBiOVU1eUExEwR-1">
          <mxGeometry x="700" y="78" width="30" height="30" as="geometry" />
        </mxCell>
        <mxCell id="rLCCT3DVY9T7elci9s30-2" value="" style="shape=image;html=1;verticalAlign=top;verticalLabelPosition=bottom;labelBackgroundColor=#ffffff;imageAspect=0;aspect=fixed;image=https://cdn4.iconfinder.com/data/icons/cologne/32x32/logout.png;fontSize=12;" vertex="1" parent="_b6Y4dmBiOVU1eUExEwR-1">
          <mxGeometry x="740" y="78" width="32" height="32" as="geometry" />
        </mxCell>
        <mxCell id="rLCCT3DVY9T7elci9s30-3" value="" style="strokeWidth=1;shadow=0;dashed=0;align=center;html=1;shape=mxgraph.mockup.containers.rrect;rSize=0;strokeColor=#666666;" vertex="1" parent="_b6Y4dmBiOVU1eUExEwR-1">
          <mxGeometry x="90" y="60" width="100" height="420" as="geometry" />
        </mxCell>
        <mxCell id="rLCCT3DVY9T7elci9s30-4" value="Users" style="strokeWidth=1;shadow=0;dashed=0;align=center;html=1;shape=mxgraph.mockup.containers.rrect;rSize=0;fontSize=12;fontStyle=1;resizeWidth=1;" vertex="1" parent="rLCCT3DVY9T7elci9s30-3">
          <mxGeometry width="100" height="26" relative="1" as="geometry">
            <mxPoint y="61" as="offset" />
          </mxGeometry>
        </mxCell>
        <mxCell id="rLCCT3DVY9T7elci9s30-5" value="Videos" style="strokeColor=#6c8ebf;fillColor=#dae8fc;strokeWidth=1;shadow=0;dashed=0;align=center;html=1;shape=mxgraph.mockup.containers.rrect;rSize=0;fontSize=12;fontStyle=1;resizeWidth=1;" vertex="1" parent="rLCCT3DVY9T7elci9s30-3">
          <mxGeometry width="100" height="26" relative="1" as="geometry">
            <mxPoint y="93" as="offset" />
          </mxGeometry>
        </mxCell>
        <mxCell id="rLCCT3DVY9T7elci9s30-6" value="&lt;table border=&quot;1&quot; width=&quot;100%&quot; cellpadding=&quot;4&quot; style=&quot;width: 100% ; height: 100% ; border-collapse: collapse&quot;&gt;&lt;tbody&gt;&lt;tr style=&quot;background-color: #a7c942 ; color: #ffffff ; border: 1px solid #98bf21&quot;&gt;&lt;th align=&quot;left&quot;&gt;Video Name&lt;/th&gt;&lt;th align=&quot;left&quot;&gt;Tags&lt;/th&gt;&lt;th align=&quot;left&quot;&gt;Video Info&lt;/th&gt;&lt;td&gt;Actions&lt;/td&gt;&lt;/tr&gt;&lt;tr style=&quot;border: 1px solid #98bf21&quot;&gt;&lt;td&gt;Video 01&lt;/td&gt;&lt;td&gt;Tag 1&lt;/td&gt;&lt;td&gt;Length 2 min&lt;/td&gt;&lt;td&gt;&lt;br&gt;&lt;/td&gt;&lt;/tr&gt;&lt;tr style=&quot;background-color: #eaf2d3 ; border: 1px solid #98bf21&quot;&gt;&lt;td&gt;&lt;span style=&quot;background-color: rgb(248 , 249 , 250)&quot;&gt;Video 02&lt;/span&gt;&lt;/td&gt;&lt;td&gt;Tag 1, Tag 4&lt;/td&gt;&lt;td&gt;&lt;span style=&quot;background-color: rgb(248 , 249 , 250)&quot;&gt;Length 1 min&lt;/span&gt;&lt;br&gt;&lt;/td&gt;&lt;td&gt;&lt;br&gt;&lt;/td&gt;&lt;/tr&gt;&lt;tr style=&quot;border: 1px solid #98bf21&quot;&gt;&lt;td&gt;Video 03&lt;br&gt;&lt;/td&gt;&lt;td&gt;Tag 3&lt;/td&gt;&lt;td&gt;Length 2 min&lt;br&gt;&lt;/td&gt;&lt;td&gt;&lt;br&gt;&lt;/td&gt;&lt;/tr&gt;&lt;tr style=&quot;background-color: #eaf2d3 ; border: 1px solid #98bf21&quot;&gt;&lt;td&gt;Video 04&lt;/td&gt;&lt;td&gt;Tag 5&lt;/td&gt;&lt;td&gt;&lt;span style=&quot;background-color: rgb(248 , 249 , 250)&quot;&gt;Length 2 min&lt;/span&gt;&lt;br&gt;&lt;/td&gt;&lt;td&gt;&lt;br&gt;&lt;/td&gt;&lt;/tr&gt;&lt;/tbody&gt;&lt;/table&gt;" style="text;html=1;strokeColor=#c0c0c0;fillColor=#ffffff;overflow=fill;rounded=0;fontSize=12;align=right;" vertex="1" parent="_b6Y4dmBiOVU1eUExEwR-1">
          <mxGeometry x="210" y="150" width="550" height="160" as="geometry" />
        </mxCell>
        <mxCell id="rLCCT3DVY9T7elci9s30-7" value="Pending" style="shape=ellipse;fillColor=#eeeeee;strokeColor=#999999;gradientColor=#cccccc;html=1;align=left;spacingLeft=4;fontSize=12;fontColor=#666666;labelPosition=right;shadow=0;" vertex="1" parent="_b6Y4dmBiOVU1eUExEwR-1">
          <mxGeometry x="210" y="120" width="15" height="15" as="geometry" />
        </mxCell>
        <mxCell id="rLCCT3DVY9T7elci9s30-9" value="All" style="shape=ellipse;fillColor=#eeeeee;strokeColor=#999999;gradientColor=#cccccc;html=1;align=left;spacingLeft=4;fontSize=12;fontColor=#666666;labelPosition=right;shadow=0;" vertex="1" parent="_b6Y4dmBiOVU1eUExEwR-1">
          <mxGeometry x="320" y="120" width="15" height="15" as="geometry" />
        </mxCell>
        <mxCell id="gE7PCVooLxjmICd8i_2L-2" value="" style="group" vertex="1" connectable="0" parent="_b6Y4dmBiOVU1eUExEwR-1">
          <mxGeometry x="696" y="189" width="50" height="20" as="geometry" />
        </mxCell>
        <mxCell id="gE7PCVooLxjmICd8i_2L-0" value="" style="shape=image;html=1;verticalAlign=top;verticalLabelPosition=bottom;labelBackgroundColor=#ffffff;imageAspect=0;aspect=fixed;image=https://cdn1.iconfinder.com/data/icons/airline-flight-booking-mobile-app/15/detail-information-menu-data-128.png;fontSize=12;" vertex="1" parent="gE7PCVooLxjmICd8i_2L-2">
          <mxGeometry y="2" width="16" height="16" as="geometry" />
        </mxCell>
        <mxCell id="gE7PCVooLxjmICd8i_2L-1" value="" style="shape=image;html=1;verticalAlign=top;verticalLabelPosition=bottom;labelBackgroundColor=#ffffff;imageAspect=0;aspect=fixed;image=https://cdn3.iconfinder.com/data/icons/google-material-design-icons/48/ic_delete_48px-128.png;fontSize=12;" vertex="1" parent="gE7PCVooLxjmICd8i_2L-2">
          <mxGeometry x="30" width="20" height="20" as="geometry" />
        </mxCell>
        <mxCell id="gE7PCVooLxjmICd8i_2L-3" value="" style="group" vertex="1" connectable="0" parent="_b6Y4dmBiOVU1eUExEwR-1">
          <mxGeometry x="701" y="224" width="50" height="20" as="geometry" />
        </mxCell>
        <mxCell id="gE7PCVooLxjmICd8i_2L-6" value="" style="group" vertex="1" connectable="0" parent="gE7PCVooLxjmICd8i_2L-3">
          <mxGeometry x="-4" y="-3" width="49" height="20" as="geometry" />
        </mxCell>
        <mxCell id="gE7PCVooLxjmICd8i_2L-4" value="" style="shape=image;html=1;verticalAlign=top;verticalLabelPosition=bottom;labelBackgroundColor=#ffffff;imageAspect=0;aspect=fixed;image=https://cdn1.iconfinder.com/data/icons/airline-flight-booking-mobile-app/15/detail-information-menu-data-128.png;fontSize=12;" vertex="1" parent="gE7PCVooLxjmICd8i_2L-6">
          <mxGeometry width="16" height="16" as="geometry" />
        </mxCell>
        <mxCell id="gE7PCVooLxjmICd8i_2L-5" value="" style="shape=image;html=1;verticalAlign=top;verticalLabelPosition=bottom;labelBackgroundColor=#ffffff;imageAspect=0;aspect=fixed;image=https://cdn3.iconfinder.com/data/icons/google-material-design-icons/48/ic_delete_48px-128.png;fontSize=12;" vertex="1" parent="gE7PCVooLxjmICd8i_2L-6">
          <mxGeometry x="29" width="20" height="20" as="geometry" />
        </mxCell>
        <mxCell id="gE7PCVooLxjmICd8i_2L-7" value="" style="group" vertex="1" connectable="0" parent="_b6Y4dmBiOVU1eUExEwR-1">
          <mxGeometry x="696" y="251" width="49" height="20" as="geometry" />
        </mxCell>
        <mxCell id="gE7PCVooLxjmICd8i_2L-8" value="" style="shape=image;html=1;verticalAlign=top;verticalLabelPosition=bottom;labelBackgroundColor=#ffffff;imageAspect=0;aspect=fixed;image=https://cdn1.iconfinder.com/data/icons/airline-flight-booking-mobile-app/15/detail-information-menu-data-128.png;fontSize=12;" vertex="1" parent="gE7PCVooLxjmICd8i_2L-7">
          <mxGeometry width="16" height="16" as="geometry" />
        </mxCell>
        <mxCell id="gE7PCVooLxjmICd8i_2L-9" value="" style="shape=image;html=1;verticalAlign=top;verticalLabelPosition=bottom;labelBackgroundColor=#ffffff;imageAspect=0;aspect=fixed;image=https://cdn3.iconfinder.com/data/icons/google-material-design-icons/48/ic_delete_48px-128.png;fontSize=12;" vertex="1" parent="gE7PCVooLxjmICd8i_2L-7">
          <mxGeometry x="29" width="20" height="20" as="geometry" />
        </mxCell>
        <mxCell id="gE7PCVooLxjmICd8i_2L-10" value="" style="group" vertex="1" connectable="0" parent="_b6Y4dmBiOVU1eUExEwR-1">
          <mxGeometry x="696" y="283" width="49" height="20" as="geometry" />
        </mxCell>
        <mxCell id="gE7PCVooLxjmICd8i_2L-11" value="" style="shape=image;html=1;verticalAlign=top;verticalLabelPosition=bottom;labelBackgroundColor=#ffffff;imageAspect=0;aspect=fixed;image=https://cdn1.iconfinder.com/data/icons/airline-flight-booking-mobile-app/15/detail-information-menu-data-128.png;fontSize=12;" vertex="1" parent="gE7PCVooLxjmICd8i_2L-10">
          <mxGeometry width="16" height="16" as="geometry" />
        </mxCell>
        <mxCell id="gE7PCVooLxjmICd8i_2L-12" value="" style="shape=image;html=1;verticalAlign=top;verticalLabelPosition=bottom;labelBackgroundColor=#ffffff;imageAspect=0;aspect=fixed;image=https://cdn3.iconfinder.com/data/icons/google-material-design-icons/48/ic_delete_48px-128.png;fontSize=12;" vertex="1" parent="gE7PCVooLxjmICd8i_2L-10">
          <mxGeometry x="29" width="20" height="20" as="geometry" />
        </mxCell>
        <mxCell id="CTXontc2Vyx37but76Ln-0" value="" style="html=1;shadow=0;dashed=0;shape=mxgraph.bootstrap.rrect;rSize=5;strokeColor=#DEE2E6;html=1;whiteSpace=wrap;fillColor=#ffffff;fontColor=#0085FC;fontSize=14;align=right;" vertex="1" parent="_b6Y4dmBiOVU1eUExEwR-1">
          <mxGeometry x="210" y="310" width="220" height="30" as="geometry" />
        </mxCell>
        <mxCell id="CTXontc2Vyx37but76Ln-1" value="Previous" style="strokeColor=inherit;fillColor=inherit;gradientColor=inherit;fontColor=inherit;html=1;shadow=0;dashed=0;shape=mxgraph.bootstrap.leftButton;rSize=5;perimeter=none;whiteSpace=wrap;resizeHeight=1;fontSize=14;" vertex="1" parent="CTXontc2Vyx37but76Ln-0">
          <mxGeometry width="70" height="30" relative="1" as="geometry" />
        </mxCell>
        <mxCell id="CTXontc2Vyx37but76Ln-2" value="1" style="strokeColor=inherit;fillColor=inherit;gradientColor=inherit;fontColor=inherit;html=1;shadow=0;dashed=0;perimeter=none;whiteSpace=wrap;resizeHeight=1;fontSize=14;" vertex="1" parent="CTXontc2Vyx37but76Ln-0">
          <mxGeometry width="30" height="30" relative="1" as="geometry">
            <mxPoint x="70" as="offset" />
          </mxGeometry>
        </mxCell>
        <mxCell id="CTXontc2Vyx37but76Ln-3" value="2" style="strokeColor=inherit;fillColor=inherit;gradientColor=inherit;fontColor=inherit;html=1;shadow=0;dashed=0;perimeter=none;whiteSpace=wrap;resizeHeight=1;fontSize=14;" vertex="1" parent="CTXontc2Vyx37but76Ln-0">
          <mxGeometry width="30" height="30" relative="1" as="geometry">
            <mxPoint x="100" as="offset" />
          </mxGeometry>
        </mxCell>
        <mxCell id="CTXontc2Vyx37but76Ln-4" value="3" style="strokeColor=inherit;fillColor=inherit;gradientColor=inherit;fontColor=inherit;html=1;shadow=0;dashed=0;perimeter=none;whiteSpace=wrap;resizeHeight=1;fontSize=14;" vertex="1" parent="CTXontc2Vyx37but76Ln-0">
          <mxGeometry width="30" height="30" relative="1" as="geometry">
            <mxPoint x="130" as="offset" />
          </mxGeometry>
        </mxCell>
        <mxCell id="CTXontc2Vyx37but76Ln-5" value="Next" style="strokeColor=inherit;fillColor=inherit;gradientColor=inherit;fontColor=inherit;html=1;shadow=0;dashed=0;shape=mxgraph.bootstrap.rightButton;rSize=5;perimeter=none;whiteSpace=wrap;resizeHeight=1;fontSize=14;" vertex="1" parent="CTXontc2Vyx37but76Ln-0">
          <mxGeometry x="1" width="60" height="30" relative="1" as="geometry">
            <mxPoint x="-60" as="offset" />
          </mxGeometry>
        </mxCell>
      </root>
    </mxGraphModel>
  </diagram>
</mxfile>
